HIERARCHY
ROOT Hips
{
	OFFSET 0.000000 0.000000 0.000000
	CHANNELS 6 Xposition Yposition Zposition Yrotation Xrotation Zrotation
	JOINT Chest
	{
		OFFSET 0.000000 -0.009281 11.569106
		CHANNELS 3 Yrotation Xrotation Zrotation
		JOINT Chest2
		{
			OFFSET -0.000000 0.016865 9.269641
			CHANNELS 3 Yrotation Xrotation Zrotation
			JOINT Chest3
			{
				OFFSET -0.000000 0.000001 8.374491
				CHANNELS 3 Yrotation Xrotation Zrotation
				JOINT Chest4
				{
					OFFSET -0.000000 0.000001 8.374493
					CHANNELS 3 Yrotation Xrotation Zrotation
					JOINT Neck
					{
						OFFSET -0.000000 0.000002 12.152554
						CHANNELS 3 Yrotation Xrotation Zrotation
						JOINT Head
						{
							OFFSET -0.000000 0.040101 7.802319
							CHANNELS 3 Yrotation Xrotation Zrotation
							End Site
							{
								OFFSET -0.000000 0.020947 14.853096
							}
						}
					}
					JOINT RightCollar
					{
						OFFSET 2.894404 0.000001 6.791374
						CHANNELS 3 Yrotation Xrotation Zrotation
						JOINT RightShoulder
						{
							OFFSET 13.574684 0.000001 0.000000
							CHANNELS 3 Yrotation Xrotation Zrotation
							JOINT RightElbow
							{
								OFFSET 23.923903 0.000002 0.000000
								CHANNELS 3 Yrotation Xrotation Zrotation
								JOINT RightWrist
								{
									OFFSET 19.846718 0.012767 0.000000
									CHANNELS 3 Yrotation Xrotation Zrotation
									End Site
									{
										OFFSET 14.973145 0.000001 0.000000
									}
								}
							}
						}
					}
					JOINT LeftCollar
					{
						OFFSET -2.894404 0.000001 6.791374
						CHANNELS 3 Yrotation Xrotation Zrotation
						JOINT LeftShoulder
						{
							OFFSET -13.574684 -0.000001 0.000000
							CHANNELS 3 Yrotation Xrotation Zrotation
							JOINT LeftElbow
							{
								OFFSET -23.923903 -0.000002 0.000000
								CHANNELS 3 Yrotation Xrotation Zrotation
								JOINT LeftWrist
								{
									OFFSET -19.846718 0.012763 0.000000
									CHANNELS 3 Yrotation Xrotation Zrotation
									End Site
									{
										OFFSET -14.973145 -0.000001 0.000000
									}
								}
							}
						}
					}
				}
			}
		}
	}
	JOINT RightHip
	{
		OFFSET 9.469263 0.004643 0.045487
		CHANNELS 3 Yrotation Xrotation Zrotation
		JOINT RightKnee
		{
			OFFSET 0.000000 0.002661 -40.478676
			CHANNELS 3 Yrotation Xrotation Zrotation
			JOINT RightAnkle
			{
				OFFSET 0.000000 0.049106 -35.224068
				CHANNELS 3 Yrotation Xrotation Zrotation
				JOINT RightToe
				{
					OFFSET -0.000001 12.539529 -6.151390
					CHANNELS 3 Yrotation Xrotation Zrotation
					End Site
					{
						OFFSET -0.000001 5.044994 -1.291870
					}
				}
			}
		}
	}
	JOINT LeftHip
	{
		OFFSET -9.469263 0.004641 0.045487
		CHANNELS 3 Yrotation Xrotation Zrotation
		JOINT LeftKnee
		{
			OFFSET 0.000000 0.002661 -40.478676
			CHANNELS 3 Yrotation Xrotation Zrotation
			JOINT LeftAnkle
			{
				OFFSET 0.000000 0.049106 -35.224068
				CHANNELS 3 Yrotation Xrotation Zrotation
				JOINT LeftToe
				{
					OFFSET -0.000001 12.539529 -6.151390
					CHANNELS 3 Yrotation Xrotation Zrotation
					End Site
					{
						OFFSET -0.000001 5.044994 -1.291870
					}
				}
			}
		}
	}
}
MOTION
Frames: 7
Frame Time: 0.016667
12.195048 6.654578 83.027168 -5.917594 -2.483613 -110.981278 0.183836 -3.706931 1.026497 0.088977 -1.645123 0.451158 0.088976 -1.645123 0.451160 0.067942 -1.233778 0.338589 -0.065188 -15.400152 -2.030390 -0.878917 7.557333 -3.818401 3.796806 19.975692 -2.434451 40.970255 56.757069 38.565727 54.306551 21.140875 74.176066 -61.459804 39.084904 -14.176636 -5.243197 13.489124 -3.323525 -31.690602 56.331056 -29.941613 -47.445831 24.879586 -72.774586 60.359645 32.268826 19.446616 -0.727342 -8.352894 -3.174583 1.626961 -3.284464 -6.076672 -0.606970 4.630738 3.261030 -0.008767 -0.006541 0.022599 -0.242334 -9.442345 -0.122144 0.692572 -1.936898 1.856027 -0.915968 5.161865 0.162203 -0.009829 -0.016263 -0.022757 
12.182890 6.652350 83.028175 -5.875269 -2.459229 -110.950255 0.169918 -3.698055 1.017429 0.082673 -1.641153 0.447076 0.082673 -1.641153 0.447074 0.063201 -1.230805 0.335505 -0.055108 -15.371219 -2.027168 -0.859810 7.611464 -3.809324 3.828911 20.068067 -2.425896 41.369814 57.142138 38.913043 54.589191 20.363289 74.440039 -60.560576 40.451321 -14.669655 -5.265906 13.524943 -3.351326 -31.785989 56.491497 -29.920067 -47.546374 24.419547 -73.212791 60.419047 32.854272 19.921609 -0.722117 -8.317459 -3.177107 1.622609 -3.247833 -6.109598 -0.601477 4.606004 3.260873 -0.011960 -0.006827 0.022000 -0.240403 -9.386275 -0.124980 0.694334 -1.928005 1.815600 -0.917560 5.144961 0.170005 -0.011447 -0.016749 -0.021833 
12.172779 6.648944 83.029449 -5.836111 -2.436728 -110.921063 0.156745 -3.679525 1.008381 0.076648 -1.632779 0.443187 0.076648 -1.632778 0.443184 0.058667 -1.224529 0.332572 -0.041624 -15.366580 -2.021495 -0.832648 7.620679 -3.793798 3.856408 20.098453 -2.412217 41.918862 57.579116 39.324906 54.741449 19.490863 74.660046 -59.579098 41.657092 -15.083558 -5.286877 13.555830 -3.335627 -32.059866 56.663977 -30.034541 -47.712696 23.896885 -73.676158 60.409458 33.314938 20.245594 -0.715882 -8.289842 -3.191242 1.615625 -3.205463 -6.128754 -0.595818 4.579529 3.273409 -0.013722 -0.007243 0.022648 -0.240630 -9.335048 -0.125077 0.702216 -1.920796 1.777236 -0.922536 5.129533 0.173113 -0.013323 -0.016174 -0.022101 
12.164786 6.644679 83.030067 -5.798818 -2.411284 -110.893155 0.146160 -3.648489 1.001810 0.071213 -1.618839 0.440365 0.071213 -1.618839 0.440362 0.054573 -1.214078 0.330440 -0.027795 -15.389968 -2.015838 -0.803967 7.577840 -3.777507 3.899418 20.142969 -2.362582 42.404437 58.056915 39.678478 54.816588 18.635910 74.751516 -58.193697 42.902969 -15.218756 -5.332697 13.578060 -3.342530 -32.390632 56.873582 -30.188760 -47.859812 23.334689 -74.090614 60.244181 33.889261 20.427469 -0.709559 -8.270266 -3.203174 1.608915 -3.152965 -6.156082 -0.592232 4.553827 3.251942 -0.015776 -0.010433 0.022219 -0.243376 -9.290202 -0.129503 0.707259 -1.905423 1.740137 -0.925560 5.112760 0.181328 -0.014742 -0.016624 -0.021379 
12.160198 6.639876 83.029778 -5.763609 -2.389327 -110.864386 0.137139 -3.612109 0.992416 0.067008 -1.602228 0.436564 0.067008 -1.602229 0.436569 0.051397 -1.201624 0.327580 -0.017290 -15.434920 -2.006578 -0.779495 7.494975 -3.755229 3.965849 20.240466 -2.290683 42.797948 58.497141 39.969321 54.887404 17.829010 74.777034 -56.773557 44.006345 -15.160826 -5.378223 13.637793 -3.338004 -32.740515 57.033859 -30.349638 -47.923128 22.768828 -74.445251 60.044494 34.611454 20.527034 -0.704182 -8.256762 -3.218225 1.604107 -3.099093 -6.180554 -0.586877 4.530037 3.230701 -0.017416 -0.014144 0.022497 -0.244044 -9.250290 -0.138915 0.711592 -1.892366 1.706642 -0.925852 5.101511 0.190497 -0.017285 -0.018462 -0.021715 
12.157812 6.635440 83.029228 -5.732606 -2.372214 -110.837468 0.133453 -3.571655 0.981521 0.065800 -1.584155 0.431997 0.065800 -1.584155 0.431999 0.050467 -1.188071 0.324149 -0.015186 -15.496504 -1.994045 -0.769009 7.381027 -3.729609 4.007652 20.324630 -2.250370 43.274938 58.925107 40.353249 55.008858 17.072770 74.745793 -55.298892 45.201369 -15.107028 -5.420500 13.685285 -3.337114 -33.058918 57.152424 -30.476639 -47.967350 22.241568 -74.769664 59.919822 35.609468 20.621627 -0.697959 -8.245912 -3.242688 1.597451 -3.054263 -6.188979 -0.578026 4.511633 3.240241 -0.019144 -0.017367 0.022728 -0.243909 -9.216375 -0.159424 0.716719 -1.882029 1.688173 -0.926347 5.094002 0.199243 -0.018940 -0.020995 -0.022421 
12.156070 6.630651 83.029694 -5.712350 -2.359851 -110.814020 0.135504 -3.530585 0.967231 0.066655 -1.566268 0.426027 0.066655 -1.566268 0.426029 0.051080 -1.174655 0.319671 -0.022880 -15.554520 -1.976453 -0.775075 7.273521 -3.698282 4.012174 20.368420 -2.243109 43.933720 59.373298 40.901925 55.189100 16.380324 74.641113 -53.637616 46.365855 -14.907805 -5.462000 13.676710 -3.358838 -33.377905 57.282765 -30.583378 -48.136721 21.741831 -75.170480 59.817226 36.652359 20.607405 -0.694792 -8.239863 -3.253924 1.594651 -3.022368 -6.195858 -0.571249 4.496108 3.263602 -0.019791 -0.017226 0.023203 -0.241595 -9.191222 -0.178491 0.717720 -1.879573 1.672084 -0.924383 5.088412 0.207476 -0.020917 -0.020590 -0.022619 
